<svg  width="600" height="600" >
 <circle cx="381" cy="213" r="137" stroke="#000000" stroke-width="1" style="fill-opacity:0.0;stroke-opacity:1" />
 <circle cx="354" cy="358" r="189" stroke="#000000" stroke-width="1" style="fill-opacity:0.0;stroke-opacity:1" />
 <circle cx="328" cy="283" r="197" stroke="#000000" stroke-width="1" style="fill-opacity:0.0;stroke-opacity:1" />
 <circle cx="363" cy="254" r="41" stroke="#000000" stroke-width="1" style="fill-opacity:0.0;stroke-opacity:1" />
 <circle cx="351" cy="208" r="30" stroke="#000000" stroke-width="1" style="fill-opacity:0.0;stroke-opacity:1" />
 <circle cx="210" cy="280" r="102" stroke="#000000" stroke-width="1" style="fill-opacity:0.0;stroke-opacity:1" />
 <circle cx="292" cy="315" r="53" stroke="#000000" stroke-width="1" style="fill-opacity:0.0;stroke-opacity:1" />
 <circle cx="331" cy="302" r="199" stroke="#000000" stroke-width="1" style="fill-opacity:0.0;stroke-opacity:1" />
 <circle cx="265" cy="229" r="138" stroke="#000000" stroke-width="1" style="fill-opacity:0.0;stroke-opacity:1" />
 <circle cx="239" cy="357" r="69" stroke="#000000" stroke-width="1" style="fill-opacity:0.0;stroke-opacity:1" />
 <circle cx="308" cy="360" r="2" fill="#ff0000" />
 <circle cx="174" cy="333" r="2" fill="#ff0000" />
 <circle cx="134" cy="272" r="2" fill="#ff0000" />
 <circle cx="321" cy="102" r="2" fill="#ff0000" />
 <circle cx="307" cy="366" r="2" fill="#ff0000" />
 <circle cx="246" cy="288" r="2" fill="#ff0000" />
 <circle cx="279" cy="366" r="2" fill="#ff0000" />
 <circle cx="333" cy="350" r="2" fill="#ff0000" />
 <circle cx="301" cy="327" r="2" fill="#ff0000" />
 <circle cx="172" cy="376" r="2" fill="#ff0000" />
 <circle cx="127" cy="219" r="2" fill="#ff0000" />
 <circle cx="264" cy="367" r="2" fill="#ff0000" />
 <circle cx="168" cy="186" r="2" fill="#ff0000" />
 <circle cx="138" cy="354" r="2" fill="#ff0000" />
 <circle cx="311" cy="265" r="2" fill="#ff0000" />
 <circle cx="270" cy="363" r="2" fill="#ff0000" />
 <circle cx="392" cy="284" r="2" fill="#ff0000" />
 <circle cx="403" cy="243" r="2" fill="#ff0000" />
 <circle cx="338" cy="288" r="2" fill="#ff0000" />
 <circle cx="326" cy="273" r="2" fill="#ff0000" />
 <circle cx="329" cy="229" r="2" fill="#ff0000" />
 <circle cx="381" cy="217" r="2" fill="#ff0000" />
 <circle cx="131" cy="264" r="2" fill="#ff0000" />
 <circle cx="281" cy="91" r="2" fill="#ff0000" />
 <circle cx="517" cy="229" r="2" fill="#ff0000" />
 <circle cx="131" cy="300" r="2" fill="#ff0000" />
 <circle cx="147" cy="361" r="2" fill="#ff0000" />
 <circle cx="151" cy="196" r="2" fill="#ff0000" />
 <circle cx="167" cy="327" r="2" fill="#ff0000" />
 <circle cx="391" cy="172" r="2" fill="#ff0000" />
 <circle cx="180" cy="432" r="2" fill="#ff0000" />
 <circle cx="530" cy="289" r="2" fill="#ff0000" />
 <circle cx="165" cy="373" r="2" fill="#ff0000" />
 <circle cx="263" cy="192" r="2" fill="#ff0000" />
 <circle cx="170" cy="400" r="2" fill="#ff0000" />
 <circle cx="525" cy="275" r="2" fill="#ff0000" />
 <circle cx="299" cy="323" r="2" fill="#ff0000" />
 <circle cx="272" cy="296" r="2" fill="#ff0000" />
 <circle cx="341" cy="344" r="2" fill="#ff0000" />
 <circle cx="307" cy="97" r="2" fill="#ff0000" />
 <circle cx="518" cy="231" r="2" fill="#ff0000" />
 <circle cx="296" cy="105" r="2" fill="#ff0000" />
 <circle cx="337" cy="343" r="2" fill="#ff0000" />
 <circle cx="258" cy="274" r="2" fill="#ff0000" />
 <circle cx="302" cy="325" r="2" fill="#ff0000" />
 <circle cx="247" cy="184" r="2" fill="#ff0000" />
 <circle cx="518" cy="231" r="2" fill="#ff0000" />
 <circle cx="329" cy="86" r="2" fill="#ff0000" />
 <circle cx="513" cy="254" r="2" fill="#ff0000" />
 <circle cx="244" cy="204" r="2" fill="#ff0000" />
</svg>

