<svg  width="600" height="600" >
 <circle cx="201" cy="204" r="33" stroke="#000000" stroke-width="1" style="fill-opacity:0.0;stroke-opacity:1" />
 <circle cx="242" cy="376" r="27" stroke="#000000" stroke-width="1" style="fill-opacity:0.0;stroke-opacity:1" />
 <circle cx="381" cy="324" r="162" stroke="#000000" stroke-width="1" style="fill-opacity:0.0;stroke-opacity:1" />
 <circle cx="248" cy="351" r="199" stroke="#000000" stroke-width="1" style="fill-opacity:0.0;stroke-opacity:1" />
 <circle cx="204" cy="309" r="16" stroke="#000000" stroke-width="1" style="fill-opacity:0.0;stroke-opacity:1" />
 <circle cx="231" cy="313" r="162" stroke="#000000" stroke-width="1" style="fill-opacity:0.0;stroke-opacity:1" />
 <circle cx="352" cy="266" r="108" stroke="#000000" stroke-width="1" style="fill-opacity:0.0;stroke-opacity:1" />
 <circle cx="290" cy="269" r="44" stroke="#000000" stroke-width="1" style="fill-opacity:0.0;stroke-opacity:1" />
 <circle cx="201" cy="284" r="101" stroke="#000000" stroke-width="1" style="fill-opacity:0.0;stroke-opacity:1" />
 <circle cx="300" cy="215" r="154" stroke="#000000" stroke-width="1" style="fill-opacity:0.0;stroke-opacity:1" />
 <circle cx="145" cy="200" r="2" fill="#ff0000" />
 <circle cx="261" cy="365" r="2" fill="#ff0000" />
 <circle cx="298" cy="313" r="2" fill="#ff0000" />
 <circle cx="283" cy="225" r="2" fill="#ff0000" />
 <circle cx="318" cy="369" r="2" fill="#ff0000" />
 <circle cx="454" cy="229" r="2" fill="#ff0000" />
 <circle cx="280" cy="347" r="2" fill="#ff0000" />
 <circle cx="263" cy="204" r="2" fill="#ff0000" />
 <circle cx="151" cy="172" r="2" fill="#ff0000" />
 <circle cx="392" cy="339" r="2" fill="#ff0000" />
 <circle cx="306" cy="168" r="2" fill="#ff0000" />
 <circle cx="384" cy="369" r="2" fill="#ff0000" />
 <circle cx="149" cy="177" r="2" fill="#ff0000" />
 <circle cx="437" cy="287" r="2" fill="#ff0000" />
 <circle cx="317" cy="163" r="2" fill="#ff0000" />
 <circle cx="445" cy="321" r="2" fill="#ff0000" />
 <circle cx="103" cy="213" r="2" fill="#ff0000" />
 <circle cx="247" cy="151" r="2" fill="#ff0000" />
 <circle cx="220" cy="348" r="2" fill="#ff0000" />
 <circle cx="450" cy="177" r="2" fill="#ff0000" />
 <circle cx="228" cy="382" r="2" fill="#ff0000" />
 <circle cx="267" cy="208" r="2" fill="#ff0000" />
 <circle cx="252" cy="225" r="2" fill="#ff0000" />
 <circle cx="380" cy="161" r="2" fill="#ff0000" />
 <circle cx="296" cy="463" r="2" fill="#ff0000" />
 <circle cx="317" cy="174" r="2" fill="#ff0000" />
 <circle cx="218" cy="316" r="2" fill="#ff0000" />
 <circle cx="219" cy="304" r="2" fill="#ff0000" />
 <circle cx="394" cy="486" r="2" fill="#ff0000" />
 <circle cx="331" cy="169" r="2" fill="#ff0000" />
 <circle cx="227" cy="352" r="2" fill="#ff0000" />
 <circle cx="268" cy="367" r="2" fill="#ff0000" />
 <circle cx="215" cy="384" r="2" fill="#ff0000" />
 <circle cx="266" cy="362" r="2" fill="#ff0000" />
 <circle cx="221" cy="357" r="2" fill="#ff0000" />
 <circle cx="238" cy="403" r="2" fill="#ff0000" />
 <circle cx="230" cy="187" r="2" fill="#ff0000" />
 <circle cx="172" cy="187" r="2" fill="#ff0000" />
</svg>

