<svg  width="600" height="600" >
 <circle cx="313" cy="212" r="30" stroke="#000000" stroke-width="1" style="fill-opacity:0.0;stroke-opacity:1" />
 <circle cx="365" cy="344" r="101" stroke="#000000" stroke-width="1" style="fill-opacity:0.0;stroke-opacity:1" />
 <circle cx="259" cy="204" r="171" stroke="#000000" stroke-width="1" style="fill-opacity:0.0;stroke-opacity:1" />
 <circle cx="245" cy="203" r="14" stroke="#000000" stroke-width="1" style="fill-opacity:0.0;stroke-opacity:1" />
 <circle cx="311" cy="372" r="65" stroke="#000000" stroke-width="1" style="fill-opacity:0.0;stroke-opacity:1" />
 <circle cx="235" cy="222" r="104" stroke="#000000" stroke-width="1" style="fill-opacity:0.0;stroke-opacity:1" />
 <circle cx="288" cy="378" r="59" stroke="#000000" stroke-width="1" style="fill-opacity:0.0;stroke-opacity:1" />
 <circle cx="310" cy="312" r="57" stroke="#000000" stroke-width="1" style="fill-opacity:0.0;stroke-opacity:1" />
 <circle cx="301" cy="274" r="57" stroke="#000000" stroke-width="1" style="fill-opacity:0.0;stroke-opacity:1" />
 <circle cx="382" cy="309" r="123" stroke="#000000" stroke-width="1" style="fill-opacity:0.0;stroke-opacity:1" />
 <circle cx="259" cy="313" r="2" fill="#ff0000" />
 <circle cx="301" cy="217" r="2" fill="#ff0000" />
 <circle cx="266" cy="348" r="2" fill="#ff0000" />
 <circle cx="263" cy="278" r="2" fill="#ff0000" />
 <circle cx="358" cy="281" r="2" fill="#ff0000" />
 <circle cx="253" cy="305" r="2" fill="#ff0000" />
 <circle cx="330" cy="421" r="2" fill="#ff0000" />
 <circle cx="260" cy="325" r="2" fill="#ff0000" />
 <circle cx="321" cy="328" r="2" fill="#ff0000" />
 <circle cx="269" cy="321" r="2" fill="#ff0000" />
 <circle cx="344" cy="358" r="2" fill="#ff0000" />
 <circle cx="255" cy="328" r="2" fill="#ff0000" />
 <circle cx="260" cy="323" r="2" fill="#ff0000" />
 <circle cx="336" cy="196" r="2" fill="#ff0000" />
 <circle cx="268" cy="321" r="2" fill="#ff0000" />
 <circle cx="339" cy="231" r="2" fill="#ff0000" />
 <circle cx="254" cy="325" r="2" fill="#ff0000" />
 <circle cx="332" cy="259" r="2" fill="#ff0000" />
 <circle cx="347" cy="427" r="2" fill="#ff0000" />
 <circle cx="261" cy="329" r="2" fill="#ff0000" />
 <circle cx="342" cy="314" r="2" fill="#ff0000" />
 <circle cx="269" cy="322" r="2" fill="#ff0000" />
 <circle cx="363" cy="333" r="2" fill="#ff0000" />
 <circle cx="257" cy="334" r="2" fill="#ff0000" />
 <circle cx="269" cy="321" r="2" fill="#ff0000" />
 <circle cx="300" cy="437" r="2" fill="#ff0000" />
 <circle cx="293" cy="309" r="2" fill="#ff0000" />
 <circle cx="270" cy="320" r="2" fill="#ff0000" />
 <circle cx="278" cy="374" r="2" fill="#ff0000" />
 <circle cx="430" cy="196" r="2" fill="#ff0000" />
 <circle cx="305" cy="369" r="2" fill="#ff0000" />
 <circle cx="358" cy="344" r="2" fill="#ff0000" />
 <circle cx="228" cy="372" r="2" fill="#ff0000" />
 <circle cx="342" cy="353" r="2" fill="#ff0000" />
 <circle cx="245" cy="375" r="2" fill="#ff0000" />
 <circle cx="366" cy="337" r="2" fill="#ff0000" />
 <circle cx="429" cy="423" r="2" fill="#ff0000" />
 <circle cx="264" cy="342" r="2" fill="#ff0000" />
 <circle cx="350" cy="244" r="2" fill="#ff0000" />
 <circle cx="267" cy="320" r="2" fill="#ff0000" />
 <circle cx="317" cy="255" r="2" fill="#ff0000" />
 <circle cx="264" cy="346" r="2" fill="#ff0000" />
 <circle cx="266" cy="322" r="2" fill="#ff0000" />
 <circle cx="314" cy="432" r="2" fill="#ff0000" />
 <circle cx="336" cy="247" r="2" fill="#ff0000" />
 <circle cx="266" cy="322" r="2" fill="#ff0000" />
 <circle cx="266" cy="324" r="2" fill="#ff0000" />
 <circle cx="323" cy="436" r="2" fill="#ff0000" />
 <circle cx="421" cy="259" r="2" fill="#ff0000" />
 <circle cx="269" cy="375" r="2" fill="#ff0000" />
 <circle cx="289" cy="229" r="2" fill="#ff0000" />
 <circle cx="338" cy="195" r="2" fill="#ff0000" />
 <circle cx="284" cy="220" r="2" fill="#ff0000" />
 <circle cx="337" cy="230" r="2" fill="#ff0000" />
 <circle cx="334" cy="190" r="2" fill="#ff0000" />
 <circle cx="339" cy="227" r="2" fill="#ff0000" />
</svg>

