<svg  width="600" height="600" >
 <circle cx="272" cy="249" r="135" stroke="#000000" stroke-width="1" style="fill-opacity:0.0;stroke-opacity:1" />
 <circle cx="318" cy="243" r="156" stroke="#000000" stroke-width="1" style="fill-opacity:0.0;stroke-opacity:1" />
 <circle cx="293" cy="387" r="118" stroke="#000000" stroke-width="1" style="fill-opacity:0.0;stroke-opacity:1" />
 <circle cx="364" cy="333" r="26" stroke="#000000" stroke-width="1" style="fill-opacity:0.0;stroke-opacity:1" />
 <circle cx="260" cy="280" r="141" stroke="#000000" stroke-width="1" style="fill-opacity:0.0;stroke-opacity:1" />
 <circle cx="368" cy="293" r="65" stroke="#000000" stroke-width="1" style="fill-opacity:0.0;stroke-opacity:1" />
 <circle cx="207" cy="354" r="128" stroke="#000000" stroke-width="1" style="fill-opacity:0.0;stroke-opacity:1" />
 <circle cx="386" cy="296" r="189" stroke="#000000" stroke-width="1" style="fill-opacity:0.0;stroke-opacity:1" />
 <circle cx="379" cy="226" r="118" stroke="#000000" stroke-width="1" style="fill-opacity:0.0;stroke-opacity:1" />
 <circle cx="234" cy="213" r="4" stroke="#000000" stroke-width="1" style="fill-opacity:0.0;stroke-opacity:1" />
 <circle cx="334" cy="335" r="2" fill="#ff0000" />
 <circle cx="261" cy="238" r="2" fill="#ff0000" />
 <circle cx="286" cy="456" r="2" fill="#ff0000" />
 <circle cx="211" cy="226" r="2" fill="#ff0000" />
 <circle cx="416" cy="338" r="2" fill="#ff0000" />
 <circle cx="308" cy="320" r="2" fill="#ff0000" />
 <circle cx="305" cy="272" r="2" fill="#ff0000" />
 <circle cx="335" cy="350" r="2" fill="#ff0000" />
 <circle cx="387" cy="343" r="2" fill="#ff0000" />
 <circle cx="295" cy="143" r="2" fill="#ff0000" />
 <circle cx="245" cy="422" r="2" fill="#ff0000" />
 <circle cx="279" cy="140" r="2" fill="#ff0000" />
 <circle cx="120" cy="260" r="2" fill="#ff0000" />
 <circle cx="324" cy="407" r="2" fill="#ff0000" />
 <circle cx="379" cy="358" r="2" fill="#ff0000" />
 <circle cx="394" cy="232" r="2" fill="#ff0000" />
 <circle cx="388" cy="343" r="2" fill="#ff0000" />
 <circle cx="339" cy="337" r="2" fill="#ff0000" />
 <circle cx="389" cy="339" r="2" fill="#ff0000" />
 <circle cx="385" cy="349" r="2" fill="#ff0000" />
 <circle cx="402" cy="341" r="2" fill="#ff0000" />
 <circle cx="270" cy="271" r="2" fill="#ff0000" />
 <circle cx="363" cy="483" r="2" fill="#ff0000" />
 <circle cx="198" cy="316" r="2" fill="#ff0000" />
 <circle cx="303" cy="269" r="2" fill="#ff0000" />
 <circle cx="222" cy="482" r="2" fill="#ff0000" />
 <circle cx="405" cy="347" r="2" fill="#ff0000" />
 <circle cx="306" cy="270" r="2" fill="#ff0000" />
 <circle cx="395" cy="326" r="2" fill="#ff0000" />
 <circle cx="175" cy="394" r="2" fill="#ff0000" />
 <circle cx="458" cy="313" r="2" fill="#ff0000" />
 <circle cx="399" cy="109" r="2" fill="#ff0000" />
 <circle cx="206" cy="352" r="2" fill="#ff0000" />
 <circle cx="395" cy="107" r="2" fill="#ff0000" />
 <circle cx="162" cy="234" r="2" fill="#ff0000" />
 <circle cx="327" cy="399" r="2" fill="#ff0000" />
 <circle cx="186" cy="159" r="2" fill="#ff0000" />
 <circle cx="339" cy="398" r="2" fill="#ff0000" />
 <circle cx="189" cy="331" r="2" fill="#ff0000" />
 <circle cx="410" cy="370" r="2" fill="#ff0000" />
 <circle cx="369" cy="343" r="2" fill="#ff0000" />
 <circle cx="320" cy="123" r="2" fill="#ff0000" />
 <circle cx="213" cy="371" r="2" fill="#ff0000" />
 <circle cx="314" cy="121" r="2" fill="#ff0000" />
 <circle cx="137" cy="246" r="2" fill="#ff0000" />
 <circle cx="334" cy="369" r="2" fill="#ff0000" />
 <circle cx="353" cy="357" r="2" fill="#ff0000" />
 <circle cx="407" cy="240" r="2" fill="#ff0000" />
 <circle cx="150" cy="191" r="2" fill="#ff0000" />
 <circle cx="402" cy="287" r="2" fill="#ff0000" />
 <circle cx="354" cy="357" r="2" fill="#ff0000" />
 <circle cx="387" cy="320" r="2" fill="#ff0000" />
 <circle cx="181" cy="349" r="2" fill="#ff0000" />
 <circle cx="389" cy="317" r="2" fill="#ff0000" />
 <circle cx="246" cy="382" r="2" fill="#ff0000" />
 <circle cx="213" cy="128" r="2" fill="#ff0000" />
</svg>

