<svg  width="600" height="600" >
 <circle cx="319" cy="390" r="39" stroke="#000000" stroke-width="1" style="fill-opacity:0.0;stroke-opacity:1" />
 <circle cx="268" cy="382" r="113" stroke="#000000" stroke-width="1" style="fill-opacity:0.0;stroke-opacity:1" />
 <circle cx="327" cy="342" r="156" stroke="#000000" stroke-width="1" style="fill-opacity:0.0;stroke-opacity:1" />
 <circle cx="281" cy="243" r="75" stroke="#000000" stroke-width="1" style="fill-opacity:0.0;stroke-opacity:1" />
 <circle cx="291" cy="265" r="6" stroke="#000000" stroke-width="1" style="fill-opacity:0.0;stroke-opacity:1" />
 <circle cx="277" cy="385" r="106" stroke="#000000" stroke-width="1" style="fill-opacity:0.0;stroke-opacity:1" />
 <circle cx="251" cy="267" r="29" stroke="#000000" stroke-width="1" style="fill-opacity:0.0;stroke-opacity:1" />
 <circle cx="326" cy="219" r="100" stroke="#000000" stroke-width="1" style="fill-opacity:0.0;stroke-opacity:1" />
 <circle cx="319" cy="388" r="6" stroke="#000000" stroke-width="1" style="fill-opacity:0.0;stroke-opacity:1" />
 <circle cx="362" cy="297" r="165" stroke="#000000" stroke-width="1" style="fill-opacity:0.0;stroke-opacity:1" />
 <circle cx="227" cy="202" r="2" fill="#ff0000" />
 <circle cx="379" cy="133" r="2" fill="#ff0000" />
 <circle cx="262" cy="296" r="2" fill="#ff0000" />
 <circle cx="230" cy="247" r="2" fill="#ff0000" />
 <circle cx="351" cy="462" r="2" fill="#ff0000" />
 <circle cx="198" cy="312" r="2" fill="#ff0000" />
 <circle cx="357" cy="314" r="2" fill="#ff0000" />
 <circle cx="248" cy="282" r="2" fill="#ff0000" />
 <circle cx="279" cy="278" r="2" fill="#ff0000" />
 <circle cx="230" cy="288" r="2" fill="#ff0000" />
 <circle cx="206" cy="245" r="2" fill="#ff0000" />
 <circle cx="253" cy="173" r="2" fill="#ff0000" />
 <circle cx="302" cy="316" r="2" fill="#ff0000" />
 <circle cx="231" cy="187" r="2" fill="#ff0000" />
 <circle cx="223" cy="292" r="2" fill="#ff0000" />
 <circle cx="336" cy="296" r="2" fill="#ff0000" />
 <circle cx="451" cy="436" r="2" fill="#ff0000" />
 <circle cx="206" cy="243" r="2" fill="#ff0000" />
 <circle cx="427" cy="222" r="2" fill="#ff0000" />
 <circle cx="226" cy="223" r="2" fill="#ff0000" />
 <circle cx="172" cy="361" r="2" fill="#ff0000" />
 <circle cx="283" cy="491" r="2" fill="#ff0000" />
 <circle cx="330" cy="186" r="2" fill="#ff0000" />
 <circle cx="206" cy="244" r="2" fill="#ff0000" />
 <circle cx="350" cy="462" r="2" fill="#ff0000" />
 <circle cx="197" cy="293" r="2" fill="#ff0000" />
 <circle cx="359" cy="314" r="2" fill="#ff0000" />
 <circle cx="241" cy="272" r="2" fill="#ff0000" />
 <circle cx="281" cy="269" r="2" fill="#ff0000" />
 <circle cx="223" cy="278" r="2" fill="#ff0000" />
 <circle cx="338" cy="472" r="2" fill="#ff0000" />
 <circle cx="375" cy="342" r="2" fill="#ff0000" />
 <circle cx="293" cy="271" r="2" fill="#ff0000" />
 <circle cx="287" cy="270" r="2" fill="#ff0000" />
 <circle cx="338" cy="293" r="2" fill="#ff0000" />
 <circle cx="216" cy="281" r="2" fill="#ff0000" />
 <circle cx="292" cy="494" r="2" fill="#ff0000" />
 <circle cx="172" cy="320" r="2" fill="#ff0000" />
</svg>

